<?xml version="1.0" standalone="no"?>
<!DOCTYPE svg PUBLIC "-//W3C//DTD SVG 20010904//EN"
 "http://www.w3.org/TR/2001/REC-SVG-20010904/DTD/svg10.dtd">
<svg version="1.0" xmlns="http://www.w3.org/2000/svg"
 width="1053.000000pt" height="540.000000pt" viewBox="0 0 1053.000000 540.000000"
 preserveAspectRatio="xMidYMid meet">

<g transform="translate(0.000000,540.000000) scale(0.100000,-0.100000)"
fill="#000000" stroke="none">
<path d="M7643 4325 c-37 -16 -63 -60 -63 -107 0 -32 -7 -37 -178 -148 -897
-579 -977 -630 -992 -624 -52 23 -118 10 -144 -27 -12 -17 -37 -12 -487 106
-261 68 -565 148 -676 177 l-202 52 -14 37 c-30 76 -134 92 -189 29 -30 -33
-37 -85 -16 -119 13 -21 46 30 -415 -646 l-253 -370 -36 3 c-20 2 -49 -3 -65
-11 -28 -15 -31 -13 -369 191 -432 263 -394 236 -394 273 0 22 -10 41 -34 65
-28 28 -42 34 -76 34 -23 0 -49 -4 -58 -9 -19 -10 -13 -13 -387 214 -624 380
-635 387 -635 406 0 90 -127 141 -188 76 -36 -38 -44 -72 -26 -116 l16 -39
-298 -532 c-211 -378 -301 -530 -311 -526 -24 10 -93 -25 -108 -55 -25 -48
-19 -87 19 -125 29 -29 41 -34 81 -34 38 0 52 5 76 29 16 16 29 37 29 47 0 16
24 17 407 11 223 -4 488 -7 587 -7 l181 0 17 -30 c10 -17 34 -38 55 -46 49
-21 104 -6 135 38 l23 31 595 -7 c546 -6 596 -8 607 -24 59 -80 132 -92 192
-30 l28 29 299 -50 c371 -63 354 -59 354 -78 0 -8 15 -30 34 -49 45 -45 108
-48 155 -8 58 49 48 146 -19 176 -27 12 -27 12 -39 167 -6 86 -20 307 -31 491
-11 184 -22 360 -25 391 -5 53 -4 56 21 68 21 9 30 9 43 -2 9 -8 84 -70 166
-137 83 -68 213 -176 290 -240 77 -64 219 -181 315 -260 96 -80 233 -194 305
-253 71 -60 140 -117 153 -126 20 -14 22 -21 13 -43 -23 -61 35 -138 105 -138
43 0 96 38 107 77 13 43 2 81 -33 113 l-30 28 25 138 c14 77 34 193 46 259 30
171 33 179 55 184 10 2 31 12 46 23 l27 19 298 -76 c164 -42 348 -89 408 -105
61 -16 236 -61 390 -100 154 -40 283 -74 287 -77 5 -2 8 -11 8 -20 0 -58 85
-113 146 -93 49 17 86 65 82 109 -3 35 -2 35 102 97 58 33 259 151 447 261
l343 200 48 -24 c48 -23 50 -24 91 -7 65 26 89 91 56 153 -24 48 -71 58 -165
37 -19 -5 -160 59 -609 276 -565 274 -584 284 -588 313 -6 43 -30 75 -68 91
-42 17 -51 17 -92 -1z m736 -450 c562 -271 581 -281 581 -308 0 -21 -9 -33
-37 -50 -20 -12 -226 -133 -457 -268 l-421 -245 -37 15 c-21 9 -39 25 -42 36
-2 11 -55 256 -117 544 l-112 524 24 18 c13 10 27 18 31 16 3 -1 268 -128 587
-282z m-709 245 c13 0 38 -100 130 -527 62 -291 115 -537 117 -548 3 -14 -5
-27 -25 -42 l-30 -22 -329 84 c-180 47 -488 126 -685 176 -196 51 -360 94
-366 98 -5 3 -12 20 -16 36 -6 30 -5 30 335 250 188 121 448 288 577 372 218
140 237 150 256 137 11 -8 28 -14 36 -14z m-5225 -640 c465 -282 486 -296 481
-321 -3 -15 -1 -39 3 -55 9 -31 3 -38 -243 -303 -88 -95 -89 -96 -131 -93 -51
4 -89 -14 -113 -52 l-17 -28 -315 2 c-173 2 -438 5 -588 9 l-273 6 -16 26
c-15 25 -11 34 278 551 l294 525 35 -4 c24 -3 45 2 65 16 17 11 35 19 42 18 6
-1 230 -135 498 -297z m3303 4 c472 -124 493 -130 499 -154 3 -14 19 -39 35
-56 l29 -31 -46 -264 c-57 -328 -51 -306 -86 -318 -29 -10 -39 -3 -328 237
-164 136 -447 371 -629 522 -183 151 -332 277 -332 281 0 6 58 -9 858 -217z
m-994 114 c3 -29 13 -179 21 -333 9 -154 20 -332 25 -395 22 -274 23 -330 7
-330 -8 0 -28 -14 -45 -31 l-29 -30 -323 55 c-178 30 -326 59 -330 63 -3 4
-11 19 -17 33 -9 23 0 41 106 195 64 94 217 317 340 498 123 180 227 327 232
327 4 0 10 -24 13 -52z m-1481 -622 c406 -246 573 -348 582 -357 11 -11 -324
-12 -842 -2 l-361 6 -11 23 c-9 21 5 39 160 207 168 183 171 185 201 176 35
-10 73 -3 103 18 25 17 22 18 168 -71z"/>
<path d="M2653 2242 c-1332 -1 -2093 -6 -2093 -12 0 -6 850 -10 2338 -12 2870
-4 6882 5 6862 14 -18 8 -4118 14 -7107 10z"/>
<path d="M2277 1820 c-17 -70 -8 -85 22 -36 23 36 44 46 104 46 l37 0 0 -185
0 -185 -30 -6 c-60 -12 -28 -24 65 -24 57 0 95 4 95 10 0 6 -9 10 -20 10 -33
0 -40 39 -40 216 l0 164 51 0 c44 0 55 -4 80 -31 16 -17 29 -35 29 -40 0 -5 5
-9 11 -9 8 0 9 15 5 48 -12 79 -14 84 -39 70 -30 -16 -313 -16 -329 0 -20 20
-25 14 -41 -48z"/>
<path d="M6427 1873 c-3 -4 -8 -24 -12 -43 -11 -54 -18 -57 -30 -14 l-11 39
-159 -3 c-189 -3 -188 -3 -150 -11 30 -6 30 -7 39 -90 4 -46 5 -131 1 -188 -6
-92 -10 -106 -26 -110 -45 -12 -13 -23 65 -23 81 0 128 15 69 22 -28 3 -28 4
-31 86 l-3 82 41 0 c35 0 43 -4 58 -30 9 -16 20 -30 25 -30 4 0 7 32 7 70 0
71 -13 91 -29 46 -11 -26 -30 -36 -72 -36 l-29 0 0 99 0 98 53 -4 c83 -7 91
-10 122 -52 34 -45 39 -48 57 -25 53 66 66 74 117 74 l51 0 -1 -127 c-1 -71
-4 -155 -8 -188 -6 -56 -8 -60 -34 -63 -15 -2 -25 -8 -22 -13 8 -11 195 -12
195 0 0 5 -13 11 -30 15 l-30 6 0 185 0 185 38 0 c58 0 75 -8 101 -45 13 -19
27 -33 31 -30 3 2 2 32 -3 65 -8 50 -13 60 -26 54 -55 -24 -318 -26 -348 -2
-6 5 -13 5 -16 1z"/>
<path d="M3520 1853 c-16 -10 -31 -34 -42 -67 -9 -29 -40 -112 -68 -185 -46
-117 -56 -135 -81 -145 -48 -18 -33 -26 46 -26 43 0 75 4 75 10 0 6 -9 10 -20
10 -31 0 -34 23 -13 87 l20 58 67 3 67 3 15 -37 c9 -21 18 -53 21 -72 5 -28 2
-34 -15 -39 -12 -3 -19 -9 -16 -14 6 -11 184 -12 184 -1 0 4 -15 14 -33 22
-30 14 -35 25 -97 213 -36 108 -69 197 -75 196 -5 0 -21 -8 -35 -16z m50 -230
c0 -2 -27 -3 -60 -3 -33 0 -60 4 -60 10 0 5 10 35 21 67 45 120 39 118 70 18
16 -49 29 -91 29 -92z"/>
<path d="M4823 1853 c-19 -10 -33 -24 -33 -35 0 -27 -107 -309 -129 -338 -37
-50 -73 -34 -142 65 -28 41 -55 75 -60 75 -20 0 -7 18 17 24 96 24 101 161 7
197 -33 12 -263 12 -263 -1 0 -5 9 -10 19 -10 27 0 31 -18 31 -139 0 -163 -9
-233 -32 -239 -44 -11 -11 -22 67 -22 47 0 85 4 85 9 0 5 -10 11 -22 13 -21 3
-23 9 -26 86 -3 74 -1 82 16 82 23 0 61 -41 97 -105 49 -88 44 -85 176 -85 68
0 120 4 124 10 3 6 -2 10 -12 10 -43 1 -47 14 -23 84 l22 67 70 -3 70 -3 19
-60 c20 -64 19 -85 -6 -85 -8 0 -15 -4 -15 -10 0 -6 37 -10 90 -10 86 0 117
11 66 24 -28 7 -44 41 -116 259 -28 86 -55 157 -58 156 -4 0 -22 -8 -39 -16z
m-375 -48 c62 -59 8 -165 -84 -165 -24 0 -24 1 -24 94 0 66 4 96 13 99 23 9
72 -5 95 -28z m400 -95 c12 -41 22 -78 22 -82 0 -5 -27 -8 -61 -8 -33 0 -59 4
-57 8 2 4 16 45 32 90 16 45 33 79 36 75 4 -5 17 -42 28 -83z"/>
<path d="M7680 1853 c-16 -10 -31 -34 -42 -67 -9 -29 -40 -112 -68 -185 -46
-117 -56 -135 -81 -145 -48 -18 -33 -26 46 -26 43 0 75 4 75 10 0 6 -9 10 -20
10 -31 0 -34 23 -13 87 l20 58 67 3 67 3 15 -37 c9 -21 18 -53 21 -72 5 -28 2
-34 -15 -39 -12 -3 -19 -9 -16 -14 6 -11 184 -12 184 -1 0 4 -15 14 -33 22
-30 14 -35 25 -97 213 -36 108 -69 197 -75 196 -5 0 -21 -8 -35 -16z m50 -230
c0 -2 -27 -3 -60 -3 -33 0 -60 4 -60 10 0 5 10 35 21 67 45 120 39 118 70 18
16 -49 29 -91 29 -92z"/>
<path d="M2954 1848 c-2 -4 8 -8 23 -10 27 -3 28 -5 37 -87 4 -46 5 -131 1
-188 -6 -92 -10 -106 -26 -110 -45 -12 -13 -23 65 -23 81 0 128 15 69 22 -28
3 -28 4 -31 86 l-3 82 41 0 c35 0 43 -4 58 -30 9 -16 20 -30 25 -30 4 0 7 32
7 70 0 71 -13 91 -29 46 -11 -26 -30 -36 -72 -36 l-29 0 0 101 c0 88 2 100 16
95 9 -3 38 -6 65 -6 51 0 61 -6 107 -64 12 -16 25 -27 28 -24 3 3 -1 30 -8 59
l-13 54 -163 0 c-90 0 -166 -3 -168 -7z"/>
<path d="M5272 1845 c-29 -21 -52 -66 -52 -102 0 -51 32 -85 116 -128 85 -43
103 -67 90 -119 -8 -32 -57 -57 -99 -49 -34 7 -77 56 -77 89 0 27 -15 32 -24
8 -10 -27 -7 -106 4 -99 6 4 31 -1 55 -11 114 -43 217 28 202 139 -7 51 -44
88 -109 111 -29 11 -63 28 -75 39 -47 42 -16 117 48 117 31 0 89 -46 101 -80
11 -31 19 -1 13 47 l-7 48 -81 3 c-62 2 -87 -1 -105 -13z"/>
<path d="M5675 1846 c-41 -18 -100 -85 -115 -131 -20 -60 -9 -155 23 -204 67
-100 240 -121 333 -39 52 46 74 96 74 171 0 83 -43 159 -109 194 -51 27 -155
31 -206 9z m170 -47 c51 -47 67 -87 67 -168 0 -102 -46 -173 -117 -181 -46 -5
-67 2 -103 35 -44 39 -63 91 -64 170 -1 71 17 118 58 155 52 46 101 42 159
-11z"/>
<path d="M8528 1852 c-94 -1 -158 -6 -158 -12 0 -6 11 -10 24 -10 23 0 24 -3
31 -102 3 -57 5 -141 3 -188 -3 -84 -3 -85 -30 -88 -16 -2 -28 -8 -28 -13 0
-6 67 -8 172 -7 l172 3 18 47 c21 57 8 71 -24 27 -13 -17 -35 -37 -50 -45 -33
-17 -130 -18 -146 -2 -7 7 -12 44 -12 95 l0 83 40 0 c35 0 43 -4 58 -30 9 -16
20 -30 25 -30 4 0 7 32 7 70 0 74 -10 88 -32 43 -11 -23 -21 -29 -56 -31 l-42
-3 0 92 0 92 46 -7 c26 -3 55 -6 65 -6 10 0 36 -19 58 -42 23 -23 43 -39 46
-36 7 7 -15 97 -24 101 -3 1 -77 1 -163 -1z"/>
<path d="M1440 1840 c0 -5 11 -10 24 -10 21 0 24 -5 30 -61 7 -76 7 -197 -2
-264 -6 -42 -11 -51 -29 -53 -13 -2 -23 -8 -23 -13 0 -12 226 -11 272 1 49 14
78 52 78 102 0 32 -7 47 -34 74 -19 19 -42 34 -52 34 -14 0 -9 8 19 31 31 25
37 37 37 69 0 87 -26 100 -195 100 -77 0 -125 -4 -125 -10z m228 -33 c49 -45
14 -130 -60 -143 l-38 -6 0 84 c0 47 3 88 7 92 12 11 66 -5 91 -27z m15 -198
c57 -61 22 -159 -57 -159 -47 0 -56 19 -56 120 l0 82 43 -7 c28 -4 51 -16 70
-36z"/>
<path d="M1830 1841 c0 -5 10 -11 23 -13 21 -3 22 -7 27 -153 6 -164 15 -196
67 -231 41 -27 152 -26 190 2 57 43 68 75 73 234 5 141 6 145 28 148 50 7 18
22 -48 22 -66 0 -98 -15 -47 -22 20 -3 23 -10 30 -93 11 -116 1 -207 -24 -239
-29 -36 -89 -51 -133 -32 -19 8 -39 23 -45 33 -14 27 -24 229 -14 283 6 33 14
46 28 48 11 2 24 8 30 13 5 5 -30 9 -88 9 -53 0 -97 -4 -97 -9z"/>
<path d="M2720 1841 c0 -5 12 -11 28 -13 l27 -3 3 -183 2 -182 -30 -6 c-60
-12 -28 -24 65 -24 52 0 95 4 95 9 0 5 -10 11 -22 13 -21 3 -24 10 -30 83 -4
44 -5 128 -2 188 6 94 9 107 25 107 10 0 21 5 24 10 4 6 -28 10 -89 10 -53 0
-96 -4 -96 -9z"/>
<path d="M3790 1840 c0 -5 9 -10 19 -10 27 0 31 -18 31 -139 0 -163 -9 -233
-32 -239 -44 -11 -11 -22 67 -22 47 0 85 4 85 9 0 5 -10 11 -22 13 -21 3 -23
9 -26 86 -3 74 -1 82 16 82 23 0 61 -41 97 -105 44 -79 52 -85 110 -85 62 0
76 9 36 26 -17 7 -49 42 -81 88 -29 42 -56 76 -61 76 -20 0 -7 18 17 24 96 24
101 161 7 197 -33 12 -263 12 -263 -1z m228 -35 c62 -59 8 -165 -84 -165 -24
0 -24 1 -24 94 0 66 4 96 13 99 23 9 72 -5 95 -28z"/>
<path d="M6830 1840 c0 -5 9 -10 19 -10 19 0 26 -16 133 -322 17 -49 36 -88
42 -88 7 0 34 60 60 133 79 219 63 215 127 31 33 -92 61 -159 68 -159 8 0 43
82 85 195 56 151 77 197 94 205 38 17 24 25 -43 25 -37 0 -65 -4 -65 -10 0 -5
9 -10 20 -10 29 0 26 -26 -24 -175 l-43 -130 -42 134 c-24 74 -45 141 -48 148
-4 9 3 16 16 20 46 12 17 23 -59 23 -47 0 -80 -4 -80 -10 0 -5 7 -10 15 -10
35 0 33 -42 -9 -167 -22 -68 -43 -123 -46 -123 -7 0 -90 260 -90 279 0 6 7 11
15 11 8 0 15 5 15 10 0 6 -33 10 -80 10 -47 0 -80 -4 -80 -10z"/>
<path d="M7950 1840 c0 -5 9 -10 19 -10 27 0 31 -18 31 -139 0 -163 -9 -233
-32 -239 -44 -11 -11 -22 67 -22 47 0 85 4 85 9 0 5 -10 11 -22 13 -21 3 -23
9 -26 86 -3 74 -1 82 16 82 23 0 61 -41 97 -105 44 -79 52 -85 110 -85 62 0
76 9 36 26 -17 7 -49 42 -81 88 -29 42 -56 76 -61 76 -20 0 -7 18 17 24 96 24
101 161 7 197 -33 12 -263 12 -263 -1z m228 -35 c62 -59 8 -165 -84 -165 -24
0 -24 1 -24 94 0 66 4 96 13 99 23 9 72 -5 95 -28z"/>
</g>
</svg>
